<svg width="34" height="21" viewBox="0 0 34 21" fill="none" xmlns="http://www.w3.org/2000/svg">
<g clip-path="url(#clip0_8_32)">
<path d="M7.97406 0.857178H26.0206V20.5106H7.96875L7.97406 0.857178Z" fill="white"/>
<path d="M-1.04651 0.857178H7.97412V20.5106H-1.04651V0.857178ZM26.0207 0.857178H35.0413V20.5106H26.026L26.0207 0.857178ZM10.6782 10.3563L9.97162 10.5365L13.2335 12.7475C13.4832 13.3084 13.1485 13.4763 12.936 13.7711L16.4741 13.4272L16.3891 16.1705L17.1276 16.1582L16.9629 13.4313L20.5063 13.7588C20.2885 13.4026 20.0919 13.2143 20.2938 12.6451L23.5504 10.557L22.9819 10.3932C22.5144 10.1148 23.1838 9.05839 23.2794 8.391C23.2794 8.391 21.3829 8.89462 21.2607 8.62847L20.7719 7.91194L19.0401 9.37776C18.8541 9.41461 18.7744 9.35729 18.7266 9.23446L19.5235 6.17179L18.2591 6.72045C18.1529 6.7573 18.0466 6.72455 17.9829 6.63037L16.761 4.74692L15.5072 6.70408C15.4116 6.77368 15.316 6.78187 15.2416 6.73274L14.0251 6.21274L14.7529 9.24674C14.6944 9.36957 14.5563 9.40233 14.3969 9.33682L12.7394 7.89147C12.5269 8.15761 12.3782 8.59162 12.0913 8.68989C11.8044 8.78406 10.8429 8.50564 10.2001 8.40328C10.4232 9.00926 11.1032 10.0247 10.6782 10.3563Z" fill="#D52B1E"/>
</g>
<defs>
<clipPath id="clip0_8_32">
<rect width="34" height="19.6534" fill="white" transform="translate(0 0.857178)"/>
</clipPath>
</defs>
</svg>
