<svg width="224" height="73" viewBox="0 0 224 73" fill="none" xmlns="http://www.w3.org/2000/svg">
<path d="M80 48H144.5L142.794 69.319C142.628 71.3978 140.893 73 138.807 73H85.6928C83.6073 73 81.8718 71.3978 81.7055 69.319L80 48Z" fill="#D16019"/>
<path d="M214.113 40.9927C217.656 35.9562 219.494 30 219.494 23.8686C219.494 17.781 217.656 11.8686 214.156 6.83212C212.319 4.11679 209.913 2.36496 206.762 2.36496H122.456C124.556 2.9781 126.306 4.51095 127.706 6.61314C131.206 11.7372 133.044 17.6934 133.044 23.8686C133.044 30.0876 131.162 36.0876 127.662 41.2117C126.219 43.4015 124.469 44.9781 122.281 45.5474H206.806C209.869 45.5912 212.275 43.7956 214.113 40.9927Z" fill="#000810"/>
<path d="M9.93125 6.91971C6.3875 12 4.50625 17.9124 4.50625 24.0438C4.50625 30.219 6.3875 36.1752 9.975 41.2555C11.4625 43.9708 14.2625 45.5474 17.3687 45.5474H122.237C124.425 44.9343 126.175 43.3577 127.619 41.2117C131.163 36.0876 133 30.0876 133 23.8686C133 17.6934 131.162 11.7372 127.662 6.61314C126.262 4.51095 124.556 2.9781 122.412 2.36496H17.4125C14.2625 2.40876 11.4188 4.11679 9.93125 6.91971Z" fill="white"/>
<path d="M15.7063 6.74453H36.4438C37.9313 6.74453 39.3312 6.91971 40.6875 7.31387C42.0438 7.70803 43.225 8.27737 44.275 9.0219C45.325 9.76642 46.1125 10.7299 46.7687 11.8686C47.3813 13.0073 47.6875 14.3212 47.6875 15.854C47.6875 17.0803 47.5563 18.1314 47.25 19.0511C46.9437 19.9708 46.5938 20.7153 46.1562 21.3285C45.8063 21.854 45.3687 22.2482 44.9312 22.5985C44.8438 22.6861 44.3187 22.2044 45.0625 22.6423C45.8063 23.0803 46.4188 23.6934 46.9875 24.3942C47.5563 25.0949 47.9938 25.927 48.3 26.8905C48.65 27.854 48.7812 28.8613 48.7812 29.9124C48.7812 31.5328 48.475 32.9781 47.8625 34.292C47.25 35.6058 46.4188 36.6569 45.4125 37.5766C44.3625 38.4526 43.1812 39.1533 41.825 39.5912C40.4688 40.073 39.025 40.292 37.5375 40.292H15.7063V6.74453ZM36.3563 20.8029C37.7125 20.8029 38.8063 20.7591 39.55 19.9708C40.3375 19.1825 40.6875 18.4818 40.6875 17.3869C40.6875 16.2482 40.2938 15.5474 39.55 14.7591C38.7625 13.9708 37.7125 13.927 36.3563 13.927H23.1438V20.7591H36.3563V20.8029ZM36.8813 33.1533C38.3688 33.1533 39.4188 33.1533 40.075 32.4526C40.7313 31.7518 41.0375 31.0073 41.0375 29.6934C41.0375 28.5985 40.6875 27.8978 40.0312 27.1095C39.375 26.3212 38.2375 26.2774 36.6625 26.2774H23.1438V33.1971L36.8813 33.1533ZM51.8 6.48175H82.775V13.7956H60.2437V19.8832H82.3375V27.3285H60.2437V33.2847H82.775V40.2482H51.8V6.48175ZM99.6625 13.708H85.4V6.48175H122.15V13.708H108.325V40.2482H99.6625V13.708Z" fill="#000810"/>
<path d="M146.781 40.4672C144.725 39.8102 142.931 38.8467 141.444 37.5766C139.956 36.3504 138.819 34.8613 137.944 33.1095C137.112 31.4015 137.069 29.4745 137.069 27.3723V6.48175H146.213V27.4599C146.213 29.2555 146.781 30.7445 147.963 31.8832C149.144 33.0219 152.644 33.5912 154.875 33.5912C156.975 33.5912 160.431 33.0657 161.569 31.9708C162.706 30.8759 163.275 29.3869 163.275 27.4599V6.48175H172.55V27.4161C172.55 29.6058 172.156 31.5328 171.325 33.2847C170.494 35.0365 169.356 36.4818 167.912 37.708C166.469 38.8905 164.675 39.854 162.575 40.5109C160.475 41.1679 157.106 41.4745 154.613 41.4745C152.206 41.4745 148.837 41.1679 146.781 40.4672ZM209.738 30.7883C209.738 29.2993 209.475 28.0292 208.95 26.9343C208.425 25.8394 207.55 24.8759 206.325 24.0876C205.1 23.2555 203.525 22.5547 201.556 21.9416C199.588 21.3285 197.181 20.7591 194.338 20.1898C191.931 19.7518 190.05 19.3139 188.65 18.9197C187.25 18.5255 186.2 18.0876 185.5 17.6496C184.8 17.2117 184.319 16.7737 184.144 16.292C184.012 15.9416 183.881 15.5036 183.881 15.0219C183.969 13.8394 184.669 12.9635 186.025 12.438C187.469 11.8686 189.394 11.6058 191.8 11.6058C194.425 11.6058 196.481 12.0438 197.881 12.9197C199.325 13.7956 200.025 15.0219 200.025 16.5985V17.6496H208.556V15.854C208.556 14.365 208.206 12.9635 207.55 11.6934C206.894 10.4234 205.844 9.32847 204.444 8.45255C203.044 7.57664 201.294 6.87591 199.194 6.35037C197.094 5.86861 194.6 5.60584 191.713 5.60584C188.913 5.60584 186.506 5.82482 184.45 6.26277C182.394 6.70073 180.688 7.35766 179.331 8.14599C177.975 8.9781 176.969 9.94161 176.269 11.1241C175.613 12.2628 175.262 13.5766 175.262 14.9781C175.262 15.1095 175.262 15.2409 175.262 15.3723C175.262 15.5036 175.262 15.5912 175.262 15.7226C175.262 17.0803 175.569 18.2628 176.137 19.3139C176.706 20.3212 177.581 21.2409 178.762 22.0292C179.944 22.8175 181.431 23.5182 183.225 24.0876C185.019 24.7007 187.162 25.2701 189.613 25.7956C192.281 26.365 194.425 26.8467 196 27.2847C197.575 27.7226 198.8 28.2044 199.631 28.6423C200.462 29.0803 200.988 29.6058 201.206 30.1314C201.381 30.5693 201.513 31.0511 201.556 31.6204C201.469 32.8029 200.812 33.7664 199.544 34.4234C198.188 35.1679 195.869 35.5182 192.544 35.5182C189.044 35.5182 186.506 35.0365 185.019 34.0292C183.488 33.0219 182.744 31.5766 182.744 29.7372V28.073H174.606V30.8321C174.606 32.4088 174.956 33.8102 175.656 35.1241C176.356 36.438 177.45 37.5328 178.894 38.4964C180.381 39.4599 182.263 40.1606 184.494 40.6861C186.769 41.2117 189.481 41.4745 192.631 41.4745C198.406 41.4745 202.694 40.5985 205.494 38.8029C208.294 37.0511 209.694 34.5985 209.694 31.5328C209.694 31.4015 209.694 31.2701 209.694 31.1387C209.737 31.0073 209.738 30.9197 209.738 30.7883Z" fill="white"/>
<path d="M210.656 0C213.938 0 216.475 1.9708 218.4 4.9927C222.075 10.5985 224 17.1241 224 23.9124C224 30.7445 222.031 37.3139 218.356 42.9197C216.431 45.9854 213.894 48 210.656 48H13.5625C10.2812 48 7.35 46.292 5.775 43.2263C1.96875 37.5328 0 30.9197 0 24.0876C0 17.2555 1.96875 10.6861 5.6875 5.0365C7.2625 1.92701 10.2375 0 13.5625 0H210.656ZM206.762 2.40876H17.4125C14.2625 2.40876 11.4188 4.16058 9.93125 6.91971C6.3875 12 4.50625 17.9124 4.50625 24.0438C4.50625 30.219 6.3875 36.1752 9.975 41.2555C11.4625 43.9708 14.2625 45.5474 17.3687 45.5474H206.762C209.825 45.5474 212.275 43.7518 214.069 40.9927C217.612 35.9562 219.45 30 219.45 23.8686C219.45 17.781 217.613 11.8686 214.113 6.83212C212.363 4.16058 209.913 2.40876 206.762 2.40876Z" fill="url(#paint0_linear_2285_16436)"/>
<path d="M101.146 54.0996H103.917V65.9996H101.418L96.029 58.6386L96.063 61.8516V65.9996H93.292V54.0996H95.791L101.18 61.4946L101.146 58.3156V54.0996Z" fill="white"/>
<path d="M115.857 59.7776C116.996 60.2706 117.744 61.3756 117.744 62.6676C117.744 64.7416 116.061 65.9996 113.239 65.9996H107.357V54.0996H113.239C115.789 54.0996 117.37 55.3066 117.37 57.2616C117.37 58.4176 116.809 59.3186 115.857 59.7776ZM113.29 56.3946H110.094V58.7576H113.29C114.174 58.7576 114.667 58.3326 114.667 57.5846C114.667 56.8366 114.157 56.3946 113.29 56.3946ZM113.426 63.6536C114.429 63.6536 115.007 63.1436 115.007 62.3106C115.007 61.4606 114.429 60.9676 113.426 60.9676H110.094V63.6536H113.426Z" fill="white"/>
<path d="M129.606 65.9996L128.722 63.8576H122.857L121.973 65.9996H118.998L124.336 54.0996H127.311L132.615 65.9996H129.606ZM125.815 56.7686L123.86 61.4606H127.736L125.815 56.7686Z" fill="white"/>
<defs>
<linearGradient id="paint0_linear_2285_16436" x1="112" y1="0" x2="112" y2="48" gradientUnits="userSpaceOnUse">
<stop stop-color="#DFE4E7"/>
<stop offset="0.4159" stop-color="#DDE2E5"/>
<stop offset="0.6435" stop-color="#D5DADE"/>
<stop offset="0.825" stop-color="#C7CED2"/>
<stop offset="0.9821" stop-color="#B4BCC1"/>
<stop offset="1" stop-color="#B1B9BF"/>
</linearGradient>
</defs>
</svg>
